<svg width="43" height="27" viewBox="0 0 43 27" fill="none" xmlns="http://www.w3.org/2000/svg">
<path fill-rule="evenodd" clip-rule="evenodd" d="M13 13.5001C13 11.511 13.856 9.60334 15.3798 8.19682C16.9035 6.7903 18.9701 6.00012 21.125 6.00012C23.2799 6.00012 25.3465 6.7903 26.8702 8.19682C28.394 9.60334 29.25 11.511 29.25 13.5001C29.25 15.4892 28.394 17.3969 26.8702 18.8034C25.3465 20.2099 23.2799 21.0001 21.125 21.0001C18.9701 21.0001 16.9035 20.2099 15.3798 18.8034C13.856 17.3969 13 15.4892 13 13.5001ZM21.125 9.00012C19.8321 9.00012 18.5921 9.47423 17.6779 10.3181C16.7636 11.1621 16.25 12.3066 16.25 13.5001C16.25 14.6936 16.7636 15.8382 17.6779 16.6821C18.5921 17.526 19.8321 18.0001 21.125 18.0001C22.4179 18.0001 23.6579 17.526 24.5721 16.6821C25.4864 15.8382 26 14.6936 26 13.5001C26 12.3066 25.4864 11.1621 24.5721 10.3181C23.6579 9.47423 22.4179 9.00012 21.125 9.00012Z" fill="#464A58"/>
<path fill-rule="evenodd" clip-rule="evenodd" d="M4.4915 10.792C3.58367 12 3.25 12.946 3.25 13.5C3.25 14.054 3.58367 15 4.4915 16.208C5.37117 17.374 6.6755 18.64 8.3265 19.81C11.635 22.154 16.1698 24 21.125 24C26.0802 24 30.615 22.154 33.9235 19.81C35.5745 18.64 36.8788 17.374 37.7585 16.208C38.6663 15 39 14.054 39 13.5C39 12.946 38.6663 12 37.7585 10.792C36.8788 9.626 35.5745 8.36 33.9235 7.19C30.615 4.846 26.0802 3 21.125 3C16.1698 3 11.635 4.846 8.3265 7.19C6.6755 8.36 5.37117 9.626 4.4915 10.792ZM6.34617 4.81C10.0967 2.154 15.3097 0 21.125 0C26.9403 0 32.1533 2.154 35.9017 4.81C37.7802 6.14 39.3315 7.624 40.4278 9.082C41.4938 10.5 42.25 12.054 42.25 13.5C42.25 14.946 41.4917 16.5 40.4278 17.918C39.3315 19.376 37.7802 20.858 35.9038 22.19C32.1555 24.846 26.9403 27 21.125 27C15.3097 27 10.0967 24.846 6.34833 22.19C4.46983 20.86 2.9185 19.376 1.82217 17.918C0.758334 16.5 0 14.946 0 13.5C0 12.054 0.758334 10.5 1.82217 9.082C2.9185 7.624 4.46983 6.142 6.34617 4.81Z" fill="#464A58"/>
</svg>
