<svg width="36" height="20" viewBox="0 0 36 20" fill="none" xmlns="http://www.w3.org/2000/svg">
<path d="M0.103525 1.66555C0.0184875 1.50507 -0.0146923 1.33544 0.00595307 1.1667C0.0265985 0.997971 0.100649 0.833575 0.223713 0.683264C0.346778 0.532953 0.516351 0.399787 0.722379 0.29166C0.928407 0.183534 1.16669 0.102649 1.42311 0.0538022C1.67953 0.00495516 1.94886 -0.0108597 2.21514 0.00729479C2.48141 0.0254492 2.7392 0.0772033 2.97323 0.159489C3.20726 0.241775 3.41276 0.352918 3.57755 0.486326C3.74233 0.619734 3.86305 0.772692 3.93255 0.936132C8.10566 9.76751 27.9029 9.76877 32.08 0.941189C32.1549 0.781985 32.2787 0.633657 32.4443 0.504677C32.6099 0.375698 32.814 0.26859 33.0451 0.189471C33.2762 0.110352 33.5297 0.0607704 33.7911 0.0435571C34.0525 0.0263438 34.3168 0.0418358 34.5687 0.089149C34.8207 0.136462 35.0554 0.21467 35.2595 0.319307C35.4636 0.423944 35.6331 0.55296 35.7583 0.69899C35.8835 0.84502 35.962 1.0052 35.9892 1.1704C36.0165 1.33559 35.9919 1.50255 35.9171 1.66176C35.1897 3.24357 33.9551 4.71392 32.2901 5.98137L34.8408 7.59443C35.2052 7.83285 35.4068 8.15218 35.4023 8.48364C35.3977 8.81509 35.1873 9.13216 34.8164 9.36654C34.4455 9.60093 33.9437 9.73388 33.4192 9.73676C32.8947 9.73964 32.3893 9.61222 32.012 9.38194L29.3893 7.72464C27.9741 8.39932 26.4105 8.93976 24.7481 9.32885L25.4623 11.0165C25.5385 11.1784 25.5626 11.3482 25.5331 11.5161C25.5037 11.684 25.4213 11.8464 25.2909 11.9938C25.1605 12.1412 24.9846 12.2706 24.7737 12.3743C24.5629 12.4781 24.3212 12.5541 24.0631 12.5979C23.805 12.6416 23.5356 12.6522 23.2708 12.6291C23.0061 12.606 22.7514 12.5496 22.5217 12.4632C22.292 12.3768 22.0921 12.2623 21.9336 12.1263C21.7752 11.9903 21.6615 11.8356 21.5993 11.6713L20.8711 9.95587C18.9766 10.1328 17.04 10.1328 15.1455 9.95587L14.4173 11.6713C14.3551 11.8356 14.2414 11.9903 14.083 12.1263C13.9245 12.2623 13.7246 12.3768 13.4949 12.4632C13.2652 12.5496 13.0105 12.606 12.7458 12.6291C12.481 12.6522 12.2116 12.6416 11.9535 12.5979C11.6954 12.5541 11.4537 12.4781 11.2429 12.3743C11.032 12.2706 10.8561 12.1412 10.7257 11.9938C10.5953 11.8464 10.5129 11.684 10.4835 11.5161C10.454 11.3482 10.4781 11.1784 10.5543 11.0165L11.2685 9.32885C9.60595 8.93937 8.04236 8.3985 6.62726 7.72337L4.00657 9.38194C3.63145 9.61931 3.12247 9.7528 2.5916 9.75304C2.06073 9.75328 1.55146 9.62024 1.17581 9.38321C0.800164 9.14617 0.588918 8.82454 0.588542 8.48908C0.588167 8.15362 0.798695 7.8318 1.17381 7.59443L3.72449 5.98263C2.15607 4.79939 0.903739 3.36078 0.0995244 1.66681L0.103525 1.66555Z" fill="#0B0D0F"/>
</svg>
